<?xml version="1.0" encoding="UTF-8" standalone="no"?>
<svg width="512" height="512" viewBox="0 0 512 512" xmlns="http://www.w3.org/2000/svg">
  <defs>
    <linearGradient id="ethGradient" x1="0%" y1="0%" x2="100%" y2="100%">
      <stop offset="0%" style="stop-color:#627eea;stop-opacity:1" />
      <stop offset="50%" style="stop-color:#8aa4f8;stop-opacity:1" />
      <stop offset="100%" style="stop-color:#627eea;stop-opacity:1" />
    </linearGradient>
  </defs>
  <circle cx="256" cy="256" r="256" fill="url(#ethGradient)" />
  <g transform="translate(128, 64) scale(0.8)">
    <path d="M160.4,178.8l-0.3-1.2l-0.4-1.6l-0.1-0.7l-0.3-1.1l-0.5-1.6l-0.2-0.8l-0.4-1.2l-0.5-1.6l-0.3-0.9l-0.4-1.2l-0.6-1.5l-0.4-1l-0.5-1.2l-0.6-1.4l-0.4-1l-0.6-1.2l-0.6-1.3l-0.5-1l-0.6-1.1l-0.7-1.3l-0.5-1l-0.7-1.1l-0.7-1.2l-0.6-0.9l-0.8-1.1l-0.7-1.1l-0.6-0.9l-0.8-1l-0.8-1l-0.7-0.8l-0.8-1l-0.9-1l-0.7-0.8l-0.9-0.9l-0.9-0.9l-0.8-0.7l-0.9-0.9l-1-0.8l-0.8-0.7l-1-0.8l-1-0.8l-0.9-0.6l-1-0.7l-1.1-0.7l-0.9-0.6l-1.1-0.7l-1.1-0.6l-1-0.5l-1.1-0.6l-1.2-0.6l-1-0.5l-1.2-0.5l-1.2-0.5l-1.1-0.4l-1.2-0.5l-1.3-0.4l-1.1-0.4l-1.3-0.4l-1.3-0.3l-1.2-0.3l-1.3-0.3l-1.4-0.3l-1.2-0.2l-1.4-0.2l-1.4-0.2l-1.3-0.1l-1.4-0.1l-1.5-0.1l-1.3,0l-1.5,0l-1.5,0l-1.4,0.1l-1.5,0.1l-1.5,0.2l-1.4,0.2l-1.5,0.3l-1.5,0.3l-1.4,0.3l-1.5,0.4l-1.5,0.5l-1.4,0.5l-1.5,0.5l-1.5,0.6l-1.4,0.6l-1.5,0.7l-1.4,0.8l-1.4,0.8l-1.4,0.8l-1.4,0.9l-1.4,0.9l-1.3,1l-1.3,1l-1.3,1.1l-1.3,1.1l-1.3,1.2l-1.2,1.2l-1.2,1.3l-1.2,1.3l-1.1,1.3l-1.1,1.4l-1.1,1.4l-1,1.4l-1,1.5l-0.9,1.5l-0.9,1.5l-0.8,1.6l-0.8,1.6l-0.7,1.6l-0.7,1.6l-0.6,1.7l-0.5,1.7l-0.5,1.7l-0.4,1.7l-0.3,1.7l-0.3,1.8l-0.2,1.8l-0.1,1.8l0,1.8l0,1.8l0.1,1.8l0.2,1.8l0.3,1.8l0.3,1.7l0.4,1.7l0.5,1.7l0.5,1.7l0.6,1.7l0.7,1.6l0.7,1.6l0.8,1.6l0.8,1.6l0.9,1.5l0.9,1.5l1,1.5l1,1.4l1.1,1.4l1.1,1.4l1.1,1.3l1.2,1.3l1.2,1.3l1.2,1.2l1.3,1.2l1.3,1.1l1.3,1.1l1.3,1l1.3,1l1.4,0.9l1.4,0.9l1.4,0.8l1.4,0.8l1.4,0.8l1.5,0.7l1.4,0.6l1.5,0.6l1.5,0.5l1.4,0.5l1.5,0.5l1.5,0.4l1.4,0.3l1.5,0.3l1.5,0.3l1.4,0.2l1.5,0.2l1.5,0.1l1.4,0.1l1.5,0l1.5,0l1.3,0l1.5-0.1l1.4-0.1l1.4-0.2l1.4-0.2l1.3-0.3l1.4-0.3l1.3-0.3l1.3-0.4l1.3-0.4l1.2-0.4l1.3-0.5l1.2-0.5l1.2-0.5l1.1-0.6l1.2-0.6l1.1-0.6l1-0.7l1.1-0.7l1-0.7l1-0.8l1-0.8l0.9-0.8l1-0.9l0.9-0.9l0.8-0.9l0.9-1l0.8-1l0.7-1l0.8-1.1l0.7-1.1l0.7-1.1l0.6-1.2l0.6-1.2l0.5-1.2l0.5-1.3l0.5-1.3l0.4-1.3l0.3-1.4l0.3-1.4l0.2-1.4l0.2-1.5l0.1-1.5l0-1.5l-0.1-1.5l-0.2-1.5l-0.2-1.4l-0.3-1.4l-0.3-1.4l-0.4-1.3l-0.5-1.3L160.4,178.8z" fill="white"/>
    <path d="M128,0v190.8l85.3,38.4L128,0z" fill="white" fill-opacity="0.6"/>
    <path d="M128,0L42.7,229.2l85.3-38.4V0z" fill="white" fill-opacity="0.5"/>
    <path d="M128,260.1v92.6l85.4-118.3L128,260.1z" fill="white" fill-opacity="0.6"/>
    <path d="M128,352.7v-92.6l-85.3-25.7L128,352.7z" fill="white" fill-opacity="0.5"/>
    <path d="M128,245.5l85.3-38.4L128,169.5V245.5z" fill="white" fill-opacity="0.2"/>
    <path d="M42.7,207.1L128,245.5v-76L42.7,207.1z" fill="white" fill-opacity="0.3"/>
  </g>
</svg>
