<?xml version="1.0" encoding="UTF-8" standalone="no"?>
<svg width="512" height="512" viewBox="0 0 512 512" xmlns="http://www.w3.org/2000/svg">
  <defs>
    <linearGradient id="goldGradient" x1="0%" y1="0%" x2="100%" y2="100%">
      <stop offset="0%" style="stop-color:#f7931a;stop-opacity:1" />
      <stop offset="50%" style="stop-color:#f9b949;stop-opacity:1" />
      <stop offset="100%" style="stop-color:#f7931a;stop-opacity:1" />
    </linearGradient>
  </defs>
  <circle cx="256" cy="256" r="256" fill="url(#goldGradient)" />
  <g transform="translate(128, 128) scale(1.0)">
    <path d="M201.5,49.9c-9.9-40.1-38.5-35.6-52.5-29.1l-7.9-31.8l-19.3,4.8l7.7,30.9c-5.1,1.3-10.2,2.7-15.3,4l-7.7-31l-19.3,4.8l7.9,31.8c-4.2,1.2-8.3,2.3-12.3,3.5l0,0l-26.7,6.7l5.1,20.5c0,0,14.2-4,14-3.7c7.8-1.9,11.6,1.8,13.4,5.3l15.2,60.9c0.8-0.2,1.8-0.4,2.9-0.6c-0.9,0.2-1.9,0.5-2.9,0.7l21.2,85.2c0.2,2.2-0.1,5.8-4.8,7.2c0.3,0.2-14,3.5-14,3.5l2.1,24.3l25.1-6.3c4.7-1.2,9.3-2.3,13.8-3.4l8,32.1l19.3-4.8l-7.9-31.9c5.3-1.2,10.4-2.5,15.4-3.7l7.8,31.7l19.3-4.8l-8-32c33.1-11.3,55.5-28.1,49.3-65.7c-5-30.2-20.9-39.4-41.9-38.3c10.5-9.8,15.1-23.3,8-42.7L201.5,49.9z M198.7,142.1c7.1,28.7-43.6,31.3-59.8,34.5l-11.8-47.3C143.3,126.2,191.3,112.4,198.7,142.1z M177.2,72.2c6.5,26.2-36.6,27.6-50.4,30.3l-10.7-43C129.9,57,170.4,45.1,177.2,72.2z" fill="white"/>
  </g>
</svg>
